# xmcd
#
# Track frame offsets:
#	150
#	11562
#	21450
#	33367
#	44420
#	56030
#	67500
#	81317
#	91990
#	103072
#	113872
#	125097
#	134765
#	143565
#	157880
#	168202
#	181152
#	191770
#	201645
#	211130
#
# Disc length: 2955 seconds
#
# Revision: 0
# Processed by: cddbd v1.4PL0 Copyright (c) Steve Scherf et al.
# Submitted via: dBpowerAMP V4.0
#
DISCID=1c0b8914
DTITLE=Patsy Cline - Country Gold
DYEAR=1995
DGENRE=Country
TTITLE0=Walkin' after midnight
TTITLE1=Three cigarettes in an ashtray
TTITLE2=Today, tomorrow and forever
TTITLE3=Just out of reach
TTITLE4=I've loved and lost again
TTITLE5=Let the teardrops fall
TTITLE6=A chuch, a courtroom and then goodbye
TTITLE7=Honkey tonk merry go round
TTITLE8=Hidin' out
TTITLE9=I cried all the way to the altar
TTITLE10=Dear God
TTITLE11=I'm blue again
TTITLE12=Try again
TTITLE13=Then you'll know
TTITLE14=He will do for you
TTITLE15=Life's railway to heaven
TTITLE16=Gotta lot of rythm in my soul
TTITLE17=Turn the cards slowly
TTITLE18=I'm moving along
TTITLE19=Stop, Look and listen
EXTD=
EXTT0=
EXTT1=
EXTT2=
EXTT3=
EXTT4=
EXTT5=
EXTT6=
EXTT7=
EXTT8=
EXTT9=
EXTT10=
EXTT11=
EXTT12=
EXTT13=
EXTT14=
EXTT15=
EXTT16=
EXTT17=
EXTT18=
EXTT19=
PLAYORDER=
